<svg height="655.81" width="719.58" xmlns="http://www.w3.org/2000/svg"><rect fill="#002276" height="644.89" ry=".15296" stroke="#fff" stroke-linecap="square" stroke-width="10.9205" width="708.66" x="5.4602" y="5.4602"/><g fill="#fff"><path d="m112.77 194.07v42.42h42.42v234.58h54.9v-277z"/><path d="m467.13 194.07v42.42h44.92v234.58h54.9v-277z"/><path d="m336.59 188.16c-45.86 1.05-83 46.73-54.12 95.75l.03.03 19.72 26.4c-33.67 18.57-58.1 42.49-56.53 83.38 4.04 61.15 48.1 80.06 96.65 82.34 25.16-1.46 50.09-3.41 68.16-20.72l11.72 15.72h54.91c-11.18-14.9-22.68-30.27-34.22-45.72 23.1-25.95 22.49-62.49 21.72-96.5h-44.91c-.81 19.03 2.25 53.15-6.28 57.07-16.01-21.43-31.93-42.67-47.28-63.13 22.32-17.68 41.96-37.01 41.09-68.81 3.12-45.42-23.83-63.09-63.84-65.63-2.29-.17-4.56-.24-6.82-.18zm5.75 42.09c7.95.26 22.07-.75 22.47 21.22-1.59 16.95-12.89 26.19-24.43 37.06-3.75-4.97-7.53-9.99-11.16-14.78-3.01-3.97-6.38-7.7-8.94-11.72-.99-3.94-.79-7.13-.84-11.03-.17-3.97 4.19-18.89 22.9-20.75zm-13 116.44 52.5 70.28c-5.53 9.06-19.45 14.34-39.5 15.28-17.22-.4-44.37-5.61-47.4-36.03-.25-21.34 19.47-39.27 34.4-49.53z"/></g></svg>